<svg xmlns="http://www.w3.org/2000/svg" width="804" height="220" fill="none">
    <g fill="#000" clip-path="url(#a)">
        <path
              d="m268.472 151.666 4.753-15.335h30.15l4.754 15.335h21.945l-27.806-87.202h-26.503l-29.433 87.202h22.14Zm30.15-30.735H278.5l10.224-31.905 9.898 31.905Zm65.639 30.735V61.995h-20.838v89.671h20.838Zm42.978 31.061-.001-33.755.065.059a15.205 15.205 0 0 0 2.099 1.622l.377.234c3.169 1.906 7.119 2.859 11.851 2.859 5.427 0 10.517-1.343 15.27-4.029 4.754-2.686 8.596-6.563 11.526-11.631 2.931-5.069 4.396-11.198 4.396-18.389 0-7.235-1.444-13.386-4.331-18.455-2.886-5.068-6.631-8.945-11.232-11.631-4.602-2.686-9.464-4.029-14.587-4.029-3.864 0-7.51.986-10.94 2.957-2.469 1.419-4.595 3.461-6.378 6.127l-.257.393-1.7-7.397h-16.996v95.065h20.838Zm11.07-47.955c-1.997 0-3.842-.368-5.535-1.105-1.693-.736-3.039-1.754-4.037-3.054-.999-1.3-1.498-2.816-1.498-4.548h-.001v-10.527l.008-.447c.056-1.918.479-3.617 1.269-5.096l.189-.338c.977-1.668 2.334-2.956 4.07-3.866 1.737-.91 3.712-1.365 5.926-1.365 2.735 0 5.09.628 7.065 1.885 1.975 1.256 3.506 3.032 4.591 5.328 1.085 2.296 1.628 4.982 1.628 8.058 0 3.638-.727 6.562-2.181 8.772-1.455 2.209-3.235 3.812-5.34 4.808-2.106.997-4.157 1.495-6.154 1.495ZM481.8 79.409c3.82 0 6.837-1.007 9.051-3.021 2.214-2.015 3.321-4.863 3.321-8.545 0-3.596-1.107-6.466-3.321-8.61-2.214-2.144-5.231-3.216-9.051-3.216-3.951 0-7.001 1.072-9.15 3.216s-3.223 5.014-3.223 8.61c0 3.682 1.074 6.53 3.223 8.545 2.149 2.014 5.199 3.021 9.15 3.021Zm10.418 72.257V87.272h-20.837v64.394h20.837Zm44.802 0V124.7l.004-.662c.049-4.37.592-7.944 1.628-10.721l.159-.411c1.193-2.967 2.789-5.122 4.786-6.465 1.997-1.343 4.189-2.015 6.577-2.015 2.344 0 4.341.813 5.991 2.437 1.649 1.625 2.474 4.126 2.474 7.505v37.298h20.968v-37.298c0-5.588-.825-10.548-2.474-14.88-1.65-4.332-4.222-7.733-7.717-10.202-3.494-2.47-7.998-3.704-13.512-3.704-4.819 0-9.127 1.343-12.926 4.029-2.358 1.667-4.406 3.927-6.145 6.779l-.179.3-2.109-9.028h-18.363v64.004h20.838Zm88.626 2.08c5.296 0 9.974-.953 14.033-2.859 4.059-1.906 7.358-4.484 9.898-7.733 2.54-3.249 4.135-6.866 4.786-10.851h-20.707c-.565 1.689-1.563 2.924-2.996 3.703-1.433.78-3.104 1.17-5.014 1.17-2.344 0-4.287-.552-5.828-1.657-1.541-1.105-2.703-2.653-3.484-4.646-.781-1.993-1.172-4.354-1.172-7.083l.001.13h38.549c1.028-4.596 1.228-9.066.601-13.41l-.113-.723c-.759-4.57-2.366-8.675-4.818-12.314-2.453-3.638-5.677-6.53-9.67-8.674-3.994-2.145-8.683-3.217-14.066-3.217-5.427 0-10.506 1.343-15.238 4.029-4.732 2.686-8.552 6.552-11.461 11.599-2.908 5.047-4.363 11.101-4.363 18.162 0 7.061 1.466 13.169 4.396 18.324 2.93 5.155 6.761 9.119 11.493 11.891 4.732 2.773 9.79 4.159 15.173 4.159Zm9.897-40.352h-20.288l.002-.018c.158-1.777.514-3.357 1.068-4.74l.172-.408c.89-2.015 2.149-3.553 3.777-4.614 1.628-1.061 3.549-1.592 5.763-1.592 1.997 0 3.635.401 4.916 1.202a8.205 8.205 0 0 1 2.963 3.184 13.652 13.652 0 0 1 1.4 4.321c.119.78.193 1.554.22 2.323l.007.342Zm40.96 39.442c4.125 0 7.532-1.245 10.224-3.736 2.691-2.491 4.037-5.664 4.037-9.52 0-3.855-1.346-7.061-4.037-9.617-2.692-2.556-6.099-3.834-10.224-3.834-4.124 0-7.477 1.278-10.06 3.834s-3.875 5.762-3.875 9.617c0 3.812 1.292 6.975 3.875 9.487 2.583 2.513 5.936 3.769 10.06 3.769Zm39.788-73.427c3.82 0 6.837-1.007 9.051-3.021 2.214-2.015 3.321-4.863 3.321-8.545 0-3.596-1.107-6.466-3.321-8.61-2.214-2.144-5.231-3.216-9.051-3.216-3.821 0-6.859 1.072-9.117 3.216-2.257 2.144-3.386 5.014-3.386 8.61 0 3.682 1.129 6.53 3.386 8.545 2.258 2.014 5.296 3.021 9.117 3.021Zm-12.438 105.592c7.597 0 13.349-2.069 17.256-6.206 3.908-4.137 5.861-11.122 5.861-20.956V87.402h-20.968v70.048c0 3.725-.662 6.216-1.986 7.472-1.324 1.257-3.332 1.885-6.024 1.885-2.083 0-4.341-.304-6.772-.91-2.431-.607-4.58-1.278-6.447-2.014v17.869c2.996.823 5.97 1.57 8.922 2.242 2.952.671 6.338 1.007 10.158 1.007Zm71.826-31.255c5.383 0 10.202-.997 14.456-2.989 4.254-1.993 7.608-4.581 10.061-7.765 2.452-3.184 3.679-6.552 3.679-10.105 0-3.898-1.259-7.147-3.777-9.747-2.518-2.599-5.969-4.765-10.354-6.498l-17.712-7.082c-2.735-.953-4.102-2.253-4.102-3.899 0-1.213.651-2.188 1.953-2.924 1.302-.737 3.082-1.105 5.34-1.105 2.735 0 4.688.509 5.86 1.527 1.173 1.018 1.759 2.22 1.759 3.607h19.079c-.043-6.152-2.366-11.22-6.967-15.206-4.602-3.985-11.179-5.978-19.731-5.978-9.117 0-16.301 1.755-21.554 5.264-5.253 3.508-7.88 8.1-7.88 13.775 0 4.029 1.248 7.505 3.745 10.429 2.496 2.925 6.045 5.34 10.646 7.246l15.564 6.043c1.649.65 2.865 1.299 3.646 1.949.782.65 1.172 1.516 1.172 2.599 0 .823-.282 1.592-.846 2.307-.564.715-1.411 1.289-2.54 1.722-1.128.433-2.561.65-4.297.65-2.866 0-5.134-.433-6.805-1.3-1.672-.866-2.551-2.426-2.638-4.678h-18.819c-.043 4.982 1.248 9.108 3.875 12.378 2.626 3.271 6.284 5.719 10.972 7.343 4.689 1.625 10.093 2.437 16.215 2.437Z" />
        <path fill-rule="evenodd" d="m165.911 58.69 47.207 46.9-47.207 46.9-47.207-46.9 47.207-46.9Z"
              clip-rule="evenodd" opacity=".4" />
        <path fill-rule="evenodd" d="m47.892 58.69 97.867 97.23H51.345L.684 105.59l47.207-46.9Z" clip-rule="evenodd" />
    </g>
    <defs>
        <clipPath id="a">
            <path fill="#fff" d="M0 56h804v129.001H0z" />
        </clipPath>
    </defs>
</svg>
